
  <svg width="450" height="220" viewBox="0 0 450 220" xmlns="http://www.w3.org/2000/svg">
      
  <defs>
      <pattern id="dotGrid" x="0" y="0" width="20" height="20" patternUnits="userSpaceOnUse">
          <circle cx="2" cy="2" r="1" fill="#1f242c" />
      </pattern>
  </defs>
      <rect width="450" height="220" rx="12" fill="#0D1117" stroke="#30363d" stroke-width="1"/>
      <rect width="450" height="220" rx="12" fill="url(#dotGrid)" />
      <text x="25" y="35" fill="#58A6FF" font-family="Segoe UI, sans-serif" font-size="18" font-weight="600">Top Languages</text>
      <line x1="25" y1="50" x2="425" y2="50" stroke="#30363d" stroke-width="1" />
      
          <text x="25" y="75" fill="#C9D1D9" font-family="Segoe UI, sans-serif" font-size="14">TypeScript</text>
          <rect x="140" y="63" width="240" height="10" rx="5" fill="#161b22" />
          <rect x="140" y="63" width="220" height="10" rx="5" fill="#58A6FF" />
          <text x="400" y="75" fill="#8B949E" font-family="Segoe UI, sans-serif" font-size="12">3</text>
      
          <text x="25" y="110" fill="#C9D1D9" font-family="Segoe UI, sans-serif" font-size="14">C</text>
          <rect x="140" y="98" width="240" height="10" rx="5" fill="#161b22" />
          <rect x="140" y="98" width="146.66666666666666" height="10" rx="5" fill="#58A6FF" />
          <text x="400" y="110" fill="#8B949E" font-family="Segoe UI, sans-serif" font-size="12">2</text>
      
          <text x="25" y="145" fill="#C9D1D9" font-family="Segoe UI, sans-serif" font-size="14">JavaScript</text>
          <rect x="140" y="133" width="240" height="10" rx="5" fill="#161b22" />
          <rect x="140" y="133" width="146.66666666666666" height="10" rx="5" fill="#58A6FF" />
          <text x="400" y="145" fill="#8B949E" font-family="Segoe UI, sans-serif" font-size="12">2</text>
      
          <text x="25" y="180" fill="#C9D1D9" font-family="Segoe UI, sans-serif" font-size="14">C++</text>
          <rect x="140" y="168" width="240" height="10" rx="5" fill="#161b22" />
          <rect x="140" y="168" width="73.33333333333333" height="10" rx="5" fill="#58A6FF" />
          <text x="400" y="180" fill="#8B949E" font-family="Segoe UI, sans-serif" font-size="12">1</text>
      
  </svg>